<svg xmlns="http://www.w3.org/2000/svg" viewBox="0 0 113.4 58.06"><g id="レイヤー_2" data-name="レイヤー 2"><g id="レイヤー_3" data-name="レイヤー 3"><g id="fujifilm"><path id="l001" d="M73.2,47.31v8.42a.76.76,0,0,0,.82.85h2.77v1a.16.16,0,0,1-.17.18H72.13c-1.39,0-1.59-.77-1.59-1.46V47.88c0-.39.15-.58.61-.57h2" style="fill:#fff"/><path id="m001" d="M85.51,47.31a.87.87,0,0,0-.94.71l-1.7,7.17h0l-1.75-7.88h-2.4c-.46,0-.61.24-.61.6v9.8h1c.16,0,.23-.09.23-.25V49.25h.16l2.16,8.46h1.42c.53,0,.73-.23.86-.75l2-7.71H86v8.46h1.9c.46,0,.67-.17.67-.63V47.31H85.51" style="fill:#fff"/><path id="i003" d="M68,47.31v9.85c0,.43-.19.55-.56.55H65.36V47.85c0-.32.13-.54.6-.54H68" style="fill:#fff"/><path id="f002" d="M58.06,47.31c-1.3,0-1.3.64-1.3,1.43v2.68a.1.1,0,0,1,0,.1L54.89,53h1.87V57.7h2.12c.44,0,.64-.15.65-.55V53h3.89a.13.13,0,0,0,.15-.14v-1h-4V49.13a.61.61,0,0,1,.69-.69h3.44a.12.12,0,0,0,.13-.13v-1H58.06" style="fill:#fff"/><path id="i002" d="M54,53H51.37v4.75h2.1c.37,0,.56-.12.56-.55V53" style="fill:#fff"/><path id="i001" d="M53.87,50.93a.34.34,0,0,0,.16-.3V47.31H52c-.46,0-.59.23-.59.55v5l2.5-2" style="fill:#fff"/><path id="j001" d="M44.75,56.88A1.63,1.63,0,0,0,46.29,55V47.87c0-.42.23-.56.53-.56H49v6.75c0,1.67-.35,2.51-1.33,3.21a5.45,5.45,0,0,1-3.35.79A10.69,10.69,0,0,1,42.59,58a.15.15,0,0,1-.13-.16V57a15.76,15.76,0,0,0,2.29-.07" style="fill:#fff"/><path id="u001" d="M35.14,47.31v7.92c0,.68.1,1.16.58,1.44a2.67,2.67,0,0,0,2.37,0c.45-.24.62-.64.62-1.44V47.84c0-.34.13-.53.59-.53h2.07V55a2.69,2.69,0,0,1-2.11,2.79,9.63,9.63,0,0,1-4.59,0A2.68,2.68,0,0,1,32.48,55V47.84c0-.34.13-.53.53-.53h2.13" style="fill:#fff"/><path id="f001" d="M24,48.74c0-.79,0-1.43,1.3-1.43H31v1a.12.12,0,0,1-.13.13H27.45a.61.61,0,0,0-.69.69v2.64h4v1a.13.13,0,0,1-.15.14H26.76v4.19c0,.4-.21.56-.66.55H24v-9" style="fill:#fff"/></g><g id="instax"><path id="x001" d="M107,23.19l6.41-12.78H107l-3.94,7.73-3.88-7.73H92.7l6.43,12.76-7,14H98.6l4.45-8.91,4,8a2.89,2.89,0,1,0,5.13-2.65Z" style="fill:#fff"/><path id="a001" d="M83.52,12c.68-4.61,6.1-3.46,6.1-.14V37.16H83.68V34.44c-4.45,5.88-15,2.53-15-10.88S79.25,7.2,83.52,12ZM74.61,23.53c0,.2-.23,8.33,4.79,8.33,2.71,0,4.58-3.28,4.58-8.33,0-.29.33-8.34-4.59-8.34S74.61,23.06,74.61,23.53Z" style="fill:#fff"/><path id="t001" d="M67.38,10.41H62.6V3.58l-6,3.52v3.31H53.45a2.42,2.42,0,0,0,0,4.84H56.6V37.16h6V15.25h4.78V10.41Z" style="fill:#fff"/><path id="s001" d="M49.62,12.45l-2.41,4.36c-.23-.2-.46-.4-.7-.58A6,6,0,0,0,43,15a3.26,3.26,0,0,0-2.34.77,2.47,2.47,0,0,0,0,3.82,9.28,9.28,0,0,0,2.16,1.34c1,.45,2,.87,2.92,1.32A11.65,11.65,0,0,1,48.63,24a6.06,6.06,0,0,1,2,3.69,9.85,9.85,0,0,1,0,3.16,7.48,7.48,0,0,1-2,4.08,8.53,8.53,0,0,1-4.59,2.53,11,11,0,0,1-7.27-.94,8.27,8.27,0,0,1-2.87-2.28,3.57,3.57,0,0,1-.8-2.07,2.46,2.46,0,0,1,2.09-2.6,3.19,3.19,0,0,1,2.8.88,8.67,8.67,0,0,0,1.87,1.43,4,4,0,0,0,3,.4,2.53,2.53,0,0,0,1.93-2.18A3.1,3.1,0,0,0,43.41,27a11.89,11.89,0,0,0-2.33-1.12,18.48,18.48,0,0,1-3.18-1.5,9.42,9.42,0,0,1-2.77-2.49,6.89,6.89,0,0,1-1.31-4.11,7.32,7.32,0,0,1,1.73-4.84,8.17,8.17,0,0,1,4-2.6A9.73,9.73,0,0,1,43,10a11.07,11.07,0,0,1,6.52,2.44Z" style="fill:#fff"/><path id="n001" d="M17.42,13.94V8.66l-5.75,3.59V34.87a2.88,2.88,0,0,0,5.75,0V19.21l6.7-4v22h5.67V15.83C29.79,9.47,20.85,8,17.42,13.94Z" style="fill:#fff"/><path id="i002-2" data-name="i002" d="M3.37,9.91a3,3,0,0,0-3,3V37.17h6V12.9A3,3,0,0,0,3.37,9.91Z" style="fill:#fff"/><path id="i001-2" data-name="i001" d="M3.37,0A3.37,3.37,0,1,1,0,3.37,3.37,3.37,0,0,1,3.37,0Z" style="fill:#fff"/></g></g></g></svg>